<svg width="20" height="18" viewBox="0 0 20 18" fill="none" xmlns="http://www.w3.org/2000/svg">
<path d="M16.0763 9.57379H5.85547C5.59575 9.57379 5.37804 9.48594 5.20234 9.31025C5.02665 9.13455 4.9388 8.91684 4.9388 8.65712C4.9388 8.3974 5.02665 8.17969 5.20234 8.004C5.37804 7.8283 5.59575 7.74045 5.85547 7.74045H16.0763L15.2971 6.96129C15.1138 6.77795 15.026 6.56406 15.0336 6.31962C15.0412 6.07518 15.1291 5.86129 15.2971 5.67795C15.4805 5.49462 15.6982 5.39913 15.9503 5.39149C16.2023 5.38386 16.4201 5.4717 16.6034 5.65504L18.9638 8.01545C19.1471 8.19879 19.2388 8.41268 19.2388 8.65712C19.2388 8.90156 19.1471 9.11545 18.9638 9.29879L16.6034 11.6592C16.4201 11.8425 16.2023 11.9304 15.9503 11.9227C15.6982 11.9151 15.4805 11.8196 15.2971 11.6363C15.1291 11.453 15.0412 11.2391 15.0336 10.9946C15.026 10.7502 15.1138 10.5363 15.2971 10.353L16.0763 9.57379ZM11.3555 4.99045V2.24045H2.1888V15.0738H11.3555V12.3238C11.3555 12.0641 11.4433 11.8464 11.619 11.6707C11.7947 11.495 12.0124 11.4071 12.2721 11.4071C12.5319 11.4071 12.7496 11.495 12.9253 11.6707C13.101 11.8464 13.1888 12.0641 13.1888 12.3238V15.0738C13.1888 15.578 13.0093 16.0096 12.6503 16.3686C12.2912 16.7276 11.8596 16.9071 11.3555 16.9071H2.1888C1.68464 16.9071 1.25304 16.7276 0.89401 16.3686C0.534983 16.0096 0.355469 15.578 0.355469 15.0738V2.24045C0.355469 1.73629 0.534983 1.30469 0.89401 0.945661C1.25304 0.586634 1.68464 0.40712 2.1888 0.40712H11.3555C11.8596 0.40712 12.2912 0.586634 12.6503 0.945661C13.0093 1.30469 13.1888 1.73629 13.1888 2.24045V4.99045C13.1888 5.25018 13.101 5.46788 12.9253 5.64358C12.7496 5.81927 12.5319 5.90712 12.2721 5.90712C12.0124 5.90712 11.7947 5.81927 11.619 5.64358C11.4433 5.46788 11.3555 5.25018 11.3555 4.99045Z" fill="#F3832D"/>
<path d="M16.0744 10.0119C15.8133 10.0652 15.5525 10.0879 15.2839 10.0647C15.2227 10.0595 15.2285 10.0184 15.2034 10.0117C15.1571 9.99941 15.0795 10.0438 15.0686 10.0438C15.0011 10.0444 15.0275 9.97236 15.0184 9.96959C14.9171 9.94035 14.9463 10.0224 14.8494 10.0303C14.7233 10.0405 14.5614 10.0259 14.4095 10.0218C14.3561 10.0202 14.3799 9.9654 14.2647 9.97001C14.1831 9.97324 13.9328 10.0357 13.8175 9.96898C13.8169 9.94377 13.8314 9.91595 13.8375 9.88993C13.6723 9.99498 13.6132 9.99037 13.379 9.96477C13.3419 9.96073 13.3068 10.0039 13.2415 9.98796C13.1763 9.97202 13.1735 9.90549 13.0423 9.90629C12.9958 9.90674 12.9675 9.95366 12.8962 9.95567C12.6932 9.96152 12.3066 9.90324 12.14 9.90123C11.812 9.8972 11.6335 9.97727 11.3421 9.94944C11.3197 9.94743 11.3689 9.89601 11.3278 9.895C11.2863 9.89399 11.2431 9.96211 11.2329 9.96373C11.1228 9.98126 10.89 9.89 10.8288 9.90104C10.6799 9.92807 10.8266 9.95809 10.6202 9.97099C10.4237 9.98327 10.1524 9.89458 9.95764 9.87724C9.73191 9.85709 9.65912 9.98592 9.48913 9.85142C8.89214 9.85928 8.29277 9.8641 7.6951 9.87095C7.6968 9.84414 7.69878 9.81732 7.70082 9.79051C7.65356 9.80906 7.60629 9.82764 7.55903 9.84599C7.56617 9.82603 7.57294 9.80605 7.58008 9.78629C7.35812 9.86331 7.16028 9.90304 6.90093 9.88188C6.89586 9.88148 6.90919 9.82802 6.90499 9.82664C6.84651 9.81656 6.78117 9.85768 6.72983 9.848C6.60573 9.82481 6.39495 9.70824 6.48776 9.85081C6.28851 9.83054 6.06523 9.84709 5.85547 9.85034C5.73805 9.85202 5.61855 9.83516 5.5131 9.79622C5.36509 9.73877 5.36387 9.63641 5.30754 9.60061C5.25174 9.56159 5.24286 9.64068 5.21983 9.62946C5.15654 9.59738 5.08237 9.54191 5.0312 9.48139C4.96899 9.40928 4.93771 9.32972 4.96611 9.29332C4.92274 9.28863 4.87741 9.27964 4.8327 9.26834C4.8993 9.24546 4.70208 8.82518 4.72723 8.70016C4.72701 8.67848 4.76652 8.67515 4.76603 8.6595C4.76601 8.6587 4.76598 8.65791 4.76596 8.65712C4.76514 8.48548 4.7115 8.43008 4.74071 8.26271C4.75455 8.20487 4.78471 8.31225 4.81436 8.16491C4.81974 8.15334 4.74915 8.12789 4.85146 7.96942C4.88822 7.91601 4.93587 7.85497 4.99363 7.79529C5.18246 7.57306 5.59823 7.41432 5.85547 7.45213C5.86228 7.45283 5.86899 7.45357 5.87561 7.45434C5.89736 7.45676 5.83112 7.52491 5.93064 7.50903C5.96668 7.50338 5.94941 7.45498 6.03679 7.45458C6.37541 7.45256 6.73648 7.50821 7.0819 7.46203C7.06931 7.51667 6.94627 7.57797 7.13122 7.54369C7.16077 7.53803 7.13871 7.48923 7.15197 7.48742C7.25938 7.47332 7.35251 7.50818 7.46876 7.48943C7.5031 7.48379 7.51163 7.44547 7.55446 7.43639C7.6177 7.42289 7.64567 7.47753 7.7191 7.45434C7.83395 7.41784 7.85169 7.36604 7.9941 7.46764C8.8012 7.46119 9.60456 7.43258 10.4089 7.47735C10.6415 7.44831 10.8561 7.41587 11.0985 7.40477C11.1699 7.40155 11.1835 7.4709 11.2974 7.44793C11.3229 7.44289 11.5048 7.36845 11.5313 7.5086C11.582 7.49651 11.614 7.4961 11.6575 7.48864C11.6245 7.46807 11.5905 7.44727 11.5589 7.4265C11.7424 7.44889 11.8924 7.39948 12.0549 7.37609C12.1745 7.35896 12.0896 7.41906 12.163 7.41301C12.2364 7.40717 12.2698 7.39364 12.3616 7.46563C12.4337 7.38258 12.4816 7.44083 12.6145 7.44304C12.6288 7.44324 12.7113 7.41104 12.7803 7.41747C12.83 7.42211 12.8447 7.4739 12.9235 7.46587C12.9364 7.46466 13.103 7.40049 13.1561 7.39464C13.2387 7.38537 13.37 7.45176 13.386 7.45257C13.6181 7.46425 13.7076 7.3987 13.8725 7.50658C13.9058 7.44247 14.0434 7.40495 14.1546 7.41118C14.295 7.41905 14.5765 7.55014 14.615 7.41161C14.7774 7.47331 14.7598 7.43523 14.9525 7.43401C15.1279 7.4328 15.5923 7.48579 15.7345 7.47814C15.8766 7.47068 15.8074 7.39363 15.8638 7.38335C15.9562 7.36625 15.9063 7.4231 15.9695 7.42229C16.006 7.4218 16.0415 7.42095 16.0763 7.41971L15.8495 7.96725C15.7499 7.87449 15.6529 7.79298 15.5429 7.71087C15.5646 7.67616 15.586 7.64081 15.6075 7.60586C15.5919 7.60902 15.5762 7.61222 15.5606 7.61537C15.5349 7.58913 15.5052 7.56061 15.482 7.53571C15.561 7.86246 15.2953 7.33062 15.1787 7.20776C15.16 7.18807 15.1366 7.16818 15.1102 7.1482C14.9743 7.04642 14.7875 6.86317 14.725 6.6844C14.7058 6.63258 14.7577 6.65779 14.7537 6.64726C14.7131 6.52644 14.6766 6.50716 14.6778 6.33495C14.6781 6.32616 14.679 6.31736 14.6803 6.30858C14.693 6.23015 14.7458 6.15711 14.7617 6.08471C14.8103 5.85459 14.923 5.63763 15.068 5.46789L15.0773 5.45813C15.2801 5.22789 15.6123 5.05341 15.9397 5.04303C15.9918 5.04034 16.0452 5.0409 16.0992 5.04543C16.2108 5.05504 16.2893 5.14203 16.371 5.17305C16.4884 5.21904 16.5873 5.21267 16.6881 5.28376C16.7385 5.32004 16.7844 5.38126 16.82 5.43843C16.8447 5.48362 16.8679 5.5252 16.8922 5.54263C16.9416 5.57834 16.9129 5.46132 16.9787 5.55133C17.0089 5.59268 16.9128 5.56241 16.956 5.60762C17.0909 5.74874 17.3264 5.9027 17.4338 6.08907C17.4371 6.07275 17.4371 6.05503 17.4386 6.03769C17.5912 6.19804 17.7058 6.35998 17.8639 6.52495C17.9192 6.58272 18.05 6.6557 18.1053 6.71136C18.1607 6.76703 18.1546 6.82365 18.1982 6.86898C18.2161 6.88767 18.237 6.85243 18.2487 6.86526C18.3946 7.02603 18.4288 7.16019 18.595 7.31506C18.7781 7.48559 18.9625 7.65804 19.1477 7.83155C19.3623 8.02575 19.5212 8.34514 19.5217 8.65712C19.5367 8.9676 19.3911 9.30247 19.1796 9.5146C19.101 9.59823 19.0226 9.68176 18.9443 9.76514C18.921 9.7899 18.9415 9.84268 18.9118 9.88318C18.8661 9.9456 18.8311 9.91589 18.8228 9.92196C18.7686 9.96194 18.8177 9.97268 18.7545 10.0359C18.6153 10.1751 18.3642 10.3731 18.2278 10.5141C17.9133 10.8391 17.6731 11.1364 17.374 11.4643C17.3525 11.488 17.3245 11.4294 17.2848 11.468C17.0866 11.6597 17.0199 11.7659 16.8728 11.9286C16.7891 12.0173 16.6719 12.1226 16.477 12.2039C16.3297 12.2656 16.1349 12.3037 15.9391 12.2912C15.639 12.2832 15.2738 12.1229 15.0547 11.8787L15.0444 11.868C14.8261 11.6284 14.708 11.2792 14.7109 11.0047C14.7098 10.9352 14.7143 10.867 14.7241 10.802C14.7242 10.802 14.7244 10.802 14.7245 10.8021C14.641 10.5511 14.8361 10.221 15.0602 10.116C15.0728 10.1106 15.0854 10.1055 15.0981 10.1006C15.0914 10.1117 15.0848 10.1228 15.078 10.1339C14.8985 10.3871 14.8062 10.7184 14.8489 11.0004C14.8808 11.2762 15.009 11.5409 15.1949 11.73C15.3912 11.9239 15.6666 12.0531 15.9461 12.0614C16.2169 12.0799 16.5146 11.967 16.7108 11.7666C16.8141 11.6658 16.9177 11.5632 17.0212 11.4577C17.6805 10.7862 18.2957 10.0041 18.9504 9.28535C19.1121 9.11157 19.2049 8.88631 19.2023 8.65712C19.2024 8.58686 19.1953 8.51708 19.18 8.44913C19.1535 8.34096 19.1904 8.26897 19.1259 8.18649C19.1151 8.17358 19.0957 8.23573 19.0645 8.19634C19.0226 8.14479 18.9764 8.09702 18.9269 8.05238C18.4427 7.61396 18.0235 7.06783 17.5556 6.64005C17.4159 6.51237 17.3557 6.53063 17.2281 6.42321C17.2673 6.42534 17.3001 6.41948 17.3368 6.41883C17.1145 6.14275 16.874 5.88455 16.6265 5.6319C16.4555 5.45105 16.2002 5.34555 15.9493 5.35839C15.7768 5.36313 15.6036 5.41251 15.4553 5.50473C15.425 5.52359 15.3903 5.48156 15.3568 5.50371C15.3083 5.53624 15.2867 5.59668 15.2639 5.64469C15.2546 5.66462 15.2462 5.68152 15.2352 5.69559C15.184 5.76336 15.1399 5.75126 15.0994 5.82355C15.0813 5.85954 15.1215 5.86774 15.08 5.94094C15.0769 5.94719 15.0338 5.93381 15.0187 5.991C14.9972 6.07199 14.9826 6.20025 14.993 6.31835C15.0007 6.42801 15.0308 6.52767 15.0527 6.58303C15.1079 6.72843 15.1323 6.86815 15.1698 6.922C15.2006 6.96556 15.229 6.98897 15.2543 7.00416C15.3083 7.03544 15.3502 7.03227 15.4161 7.09815C15.6355 7.31741 15.8462 7.5392 16.0543 7.76241L16.0763 7.7094C15.4346 7.68695 14.7965 7.65199 14.1284 7.6524C14.0665 7.65243 13.8375 7.72718 13.7229 7.72418C13.6845 7.72297 13.4837 7.70323 13.4536 7.7016C13.3316 7.69534 13.2261 7.65016 13.1588 7.64068C13.0282 7.62215 12.8824 7.69271 12.8113 7.69977C12.6865 7.71226 12.465 7.70299 12.4126 7.70117C12.2861 7.69673 12.3279 7.60945 12.2371 7.62982C12.2103 7.6359 12.2384 7.70282 12.1439 7.70282C12.0647 7.70259 12.0327 7.65219 11.9786 7.64312C11.9246 7.6341 11.8254 7.71204 11.7918 7.71008C11.6156 7.69919 11.5377 7.64812 11.346 7.6455C11.1867 7.6435 10.4507 7.67922 10.3895 7.69757C10.1155 7.77956 10.5719 7.74278 10.5976 7.74554C10.7367 7.76147 10.7163 7.79293 10.855 7.73285C10.9791 7.91817 11.4116 7.62962 11.5225 7.84943C11.637 7.70302 11.7333 7.77683 11.854 7.80627C12.0208 7.84697 11.8938 7.76165 12.0155 7.76105C12.0635 7.76089 12.2025 7.82739 12.2745 7.81812C12.3466 7.80882 12.3769 7.75783 12.4735 7.755C12.6458 7.74977 12.7845 7.77357 12.9293 7.83466C12.9558 7.80764 12.9806 7.78061 13.0068 7.7536C13.1067 7.78264 13.2071 7.8115 13.307 7.84033C13.291 7.81674 13.275 7.79294 13.2591 7.76935C13.2883 7.76592 13.3176 7.76269 13.3469 7.75946C13.4441 7.79495 13.537 7.82781 13.6369 7.8645C13.9085 7.72803 13.8297 7.84615 13.9806 7.86389C14.1315 7.88162 14.2189 7.80261 14.3354 7.80219C14.4925 7.80158 14.5646 7.79172 14.7231 7.79736C14.8149 7.80059 14.9706 7.87683 14.8427 7.75604C15.1294 7.74636 15.5217 7.71265 15.7781 7.76166C15.8538 7.77595 15.7529 7.814 15.7658 7.81873C15.83 7.8411 15.8841 7.77943 15.9504 7.78827C15.9846 7.79284 16.0289 7.80063 16.0763 7.80953L16.2419 7.81224L16.1251 7.69161C16.0647 7.60327 15.9974 7.50021 15.9606 7.45243C15.8839 7.35265 15.6887 7.27042 15.6704 7.26038C15.5682 7.20402 15.5938 7.13591 15.5651 7.11368C15.4165 6.99921 15.3602 6.97849 15.3908 6.86758C15.3944 6.85672 15.3991 6.84503 15.4049 6.83239C15.3302 6.85299 15.1184 6.72687 15.198 6.63592C15.1115 6.67484 15.0627 6.49934 15.0413 6.38778C15.0669 6.36577 15.0933 6.34519 15.1206 6.32679C15.1195 6.32529 15.1185 6.32377 15.1174 6.32224C15.0009 6.16276 15.1148 5.85368 15.318 5.69709C15.4021 5.63154 15.4923 5.58454 15.5706 5.55038C15.577 5.54772 15.5578 5.47903 15.6075 5.47421C15.6107 5.47433 15.6187 5.50416 15.6479 5.49684C15.7004 5.48191 15.8386 5.4708 15.9533 5.49231C16.0488 5.50762 16.1221 5.53925 16.1388 5.54321C16.2719 5.57918 16.3145 5.55015 16.3974 5.59311C16.479 5.6416 16.4855 5.68563 16.5234 5.73506C16.5359 5.75147 16.5516 5.76893 16.5732 5.78841C16.6177 5.82857 16.6994 5.82386 16.7598 5.89653C16.7957 5.9395 16.7656 5.97733 16.7941 6.01129C16.8954 6.13219 16.9983 6.19235 17.0527 6.33512C17.1863 6.25292 17.1539 6.37957 17.1946 6.4365C17.3594 6.66781 17.6519 6.86909 17.812 7.04889C18.1605 7.44057 18.4624 7.82034 18.784 8.19523C18.8915 8.32617 18.9429 8.45978 18.9471 8.61017C18.9477 8.62817 18.9512 8.6432 18.9565 8.65712C18.9745 8.70501 19.0192 8.73955 19.0002 8.81002C18.988 8.85103 18.924 8.87205 18.8962 8.92536C18.874 8.96853 18.8545 9.04753 18.8043 9.09999C18.7956 9.1092 18.7757 9.09683 18.7578 9.09277C18.7475 9.09186 18.7374 9.09348 18.7287 9.10198C18.5333 9.29311 18.3707 9.50796 18.1935 9.72112C18.1278 9.80015 18.0343 9.79615 18.1314 9.86872C18.083 9.87555 18.038 9.8843 17.9915 9.88973C17.9454 10.0427 17.8084 10.0683 17.6875 10.2166C17.6746 10.2328 17.6316 10.393 17.5316 10.4084C17.5577 10.4427 17.5923 10.4594 17.618 10.4885C17.5726 10.557 17.4502 10.6096 17.4081 10.6445C17.3662 10.6793 17.3797 10.7443 17.3685 10.7563C17.3255 10.8013 17.2841 10.7394 17.2799 10.7419C17.0254 10.8975 17.0745 10.9034 17.0281 11.1046C17.0166 11.1551 16.7494 11.3089 16.768 11.4126C16.7411 11.3896 16.7309 11.3559 16.7105 11.3288C16.6409 11.3856 16.5705 11.4427 16.5007 11.4997C16.5381 11.5102 16.5782 11.5181 16.6146 11.5299C16.5866 11.5501 16.562 11.5723 16.5399 11.5957C16.4533 11.6878 16.3835 11.7962 16.2709 11.8366C16.192 11.8623 16.1827 11.7849 16.1434 11.811C16.1353 11.816 16.1608 11.8626 16.1342 11.8718C16.0661 11.8943 16.0056 11.8984 15.9511 11.8943C15.8297 11.883 15.7372 11.8413 15.6028 11.7722C15.5213 11.7279 15.3948 11.7428 15.3202 11.6132C15.3169 11.6058 15.3131 11.5969 15.3097 11.5873C15.3004 11.5696 15.282 11.4181 15.1401 11.3862C15.1601 11.3428 15.1683 11.3119 15.1898 11.2814C14.9936 11.1774 15.1067 11.1472 15.1522 10.9909C15.1587 10.9708 15.1649 10.9486 15.1708 10.9235C15.181 10.8286 15.2529 10.5727 15.382 10.4378C15.4122 10.402 15.4375 10.371 15.4552 10.3484C15.5103 10.2773 15.4609 10.2302 15.4703 10.217C15.5265 10.1385 15.5733 10.1853 15.6278 10.1153C15.6824 10.0454 15.7081 9.91381 15.7769 9.85471C15.8297 9.80945 15.8492 9.90618 15.9013 9.8136C15.9119 9.79423 15.8197 9.78773 15.9154 9.73076C15.9304 9.72174 16.1057 9.65316 16.1422 9.63971C16.109 9.73485 15.9633 9.96129 15.9059 10.0438C15.7926 10.2067 15.6605 10.3829 15.5133 10.5691C15.4142 10.7065 15.3838 10.8336 15.4082 10.9829C15.432 11.1343 15.4939 11.2449 15.6085 11.3509L15.5958 11.3376C15.7158 11.4365 15.8218 11.4702 15.9641 11.4664C16.0971 11.4583 16.1684 11.4207 16.2645 11.3203C17.11 10.4318 17.9848 9.56739 18.621 8.95599C18.6335 8.9443 18.645 8.93279 18.6554 8.9215C18.7137 8.85751 18.7965 8.84464 18.8203 8.78796C18.8398 8.73338 18.7656 8.76608 18.7791 8.71998C18.7846 8.69858 18.7968 8.67895 18.8085 8.65712C18.8223 8.63131 18.8354 8.60501 18.8333 8.57732C18.8256 8.47484 18.7863 8.37966 18.6989 8.28031C18.4011 7.95617 18.1019 7.63324 17.8004 7.31928C17.688 7.20232 17.5586 7.14848 17.4543 7.04414C17.4137 7.00352 17.4612 6.95352 17.4319 6.9251C17.1172 6.61813 16.7828 6.37749 16.4793 6.06264C16.4339 6.01551 16.3922 5.96202 16.3517 5.90674C16.3078 5.83638 16.2572 5.77101 16.1919 5.74021C16.121 5.70636 16.0364 5.72097 15.9606 5.73309C15.9452 5.73539 15.9305 5.73749 15.9163 5.73897C15.8702 5.74412 15.836 5.6986 15.8168 5.69876C15.7524 5.70173 15.7927 5.75776 15.7653 5.767C15.6936 5.79469 15.616 5.75021 15.5478 5.8115C15.5223 5.83621 15.5579 5.86976 15.5284 5.90925L15.5383 5.89899C15.5382 5.89901 15.5382 5.89904 15.5382 5.89906C15.5047 5.95172 15.4848 5.90523 15.4558 5.94016C15.4541 5.94214 15.4872 5.95634 15.4754 5.97545C15.4113 6.07815 15.3899 6.20743 15.3929 6.33085C15.3934 6.35545 15.3947 6.37805 15.3963 6.39892C15.4052 6.51292 15.4376 6.61731 15.5259 6.73252C15.6647 6.89961 15.7995 7.06531 15.9402 7.21593C16.0084 7.28865 16.0222 7.23743 16.0462 7.25822C16.1603 7.35769 16.1608 7.43462 16.2845 7.53226L16.7821 8.04646L16.0763 8.03489C16.075 8.03503 16.0738 8.03519 16.0725 8.03535C16.046 8.03858 15.9392 8.10226 15.8372 8.08613C15.7821 8.07744 15.7196 8.03772 15.6727 8.02845C15.6258 8.01918 15.6183 8.07767 15.5619 8.07771C15.4592 8.07791 15.4891 8.03737 15.3422 8.04462C15.2831 8.04745 15.0856 8.10286 14.9333 8.09864C14.6844 8.09178 14.376 8.04116 14.0826 8.04035C13.9819 8.03995 13.8526 8.10005 13.6966 8.10066C13.5059 8.10146 13.1544 8.08779 12.959 8.08698C12.859 8.08658 12.8518 8.02362 12.8399 8.021C12.7634 8.00349 12.7943 8.07383 12.743 8.07105C12.6727 8.06722 12.607 8.01534 12.5431 8.01191C12.5023 8.00971 12.4958 8.06155 12.487 8.06196C12.1599 8.0791 11.8709 8.07426 11.5459 8.0799C9.80283 8.10975 8.04306 8.1763 6.30337 8.14625C6.15751 8.14383 6.15203 8.07847 6.02386 8.08875C5.96643 8.09327 5.90988 8.1241 5.85547 8.14274C5.81094 8.16589 5.78115 8.1732 5.73005 8.09504C5.7337 8.12636 5.73807 8.14836 5.74161 8.17684C5.64033 8.16625 5.56176 8.21996 5.49875 8.3004C5.46681 8.34086 5.44529 8.38049 5.42684 8.41829C5.39245 8.48999 5.37315 8.56201 5.3695 8.65712C5.36898 8.6728 5.36897 8.68809 5.36951 8.70301C5.37515 8.79043 5.32371 8.80224 5.41312 8.84433C5.42689 8.90215 5.45439 8.95657 5.50139 9.0112C5.59392 9.11647 5.69497 9.16636 5.85547 9.17698C6.16857 9.18885 6.48089 9.20501 6.79042 9.2394C6.9475 9.12224 7.09806 9.19606 7.31531 9.2134C7.34213 9.21559 7.31336 9.17284 7.39289 9.17647C7.49279 9.18094 7.54448 9.24625 7.7127 9.24264C7.75723 9.24163 8.08711 9.16922 8.20917 9.20632C8.33122 9.24342 8.50802 9.2652 8.63482 9.30068C8.6168 9.27266 8.59398 9.24585 8.57393 9.21822C8.63716 9.21338 8.70074 9.20872 8.76397 9.20388C8.77315 9.23756 8.78235 9.27126 8.79119 9.30514C8.82791 9.27308 8.86464 9.24141 8.9017 9.20895C8.98158 9.38195 8.89968 9.32552 9.07746 9.28176C9.16654 9.25998 9.23725 9.29021 9.3287 9.27267C9.36166 9.26622 9.38274 9.21528 9.41907 9.20876C9.50812 9.19304 9.45622 9.26315 9.51124 9.26278C9.56665 9.26218 9.64621 9.18516 9.74549 9.21944C9.64185 9.35674 9.9414 9.31195 9.95568 9.20528C9.99134 9.20509 10.0212 9.20952 10.0606 9.2065C10.0243 9.47592 10.211 9.28473 10.2851 9.24783C10.3592 9.21098 10.3562 9.28336 10.3735 9.28054C10.4235 9.27267 10.3871 9.24261 10.4221 9.2416C10.654 9.23555 10.8723 9.27974 11.1011 9.28378C11.134 9.28435 11.1048 9.24344 11.1432 9.24746C11.1816 9.25149 11.2184 9.29222 11.2752 9.28939C11.2904 9.28868 11.2952 9.25274 11.3189 9.25271C11.8163 9.25432 12.2886 9.28494 12.7959 9.28958C12.8418 9.28998 12.8778 9.22609 12.9665 9.22829C13.0552 9.23051 13.1899 9.28817 13.3 9.29263C13.3293 9.29384 13.3372 9.24062 13.3759 9.24203C13.5078 9.24688 13.6215 9.29021 13.7584 9.29727C13.9899 9.30915 14.2323 9.27668 14.4672 9.30813C14.5117 9.31398 14.5046 9.35837 14.5689 9.37088C14.6797 9.39245 14.638 9.32773 14.6604 9.31906C14.7338 9.29105 14.7569 9.37707 14.8279 9.35495C14.8388 9.35152 14.8233 9.30051 14.833 9.29971C14.984 9.29083 14.9919 9.41041 15.1524 9.34628C15.2951 9.41503 15.0567 9.43845 15.0322 9.47494C14.9725 9.56366 15.1305 9.66791 15.2236 9.70139C15.3039 9.73022 15.3033 9.67499 15.3352 9.67496C15.5042 9.67476 15.7558 9.66426 15.8843 9.69047C15.9622 9.70619 15.8218 9.7292 15.8616 9.74735C15.901 9.76548 15.9266 9.72397 15.967 9.76933C16.0075 9.8147 16.09 9.94822 16.0744 10.0119ZM6.93531 7.59954C6.72463 7.77664 6.23094 7.79468 5.85547 7.78407C5.77243 7.78153 5.69546 7.78745 5.63001 7.79911C5.42475 7.8289 5.20487 7.90089 5.18206 7.98371C5.17311 8.01534 5.19512 8.04472 5.25563 8.08017C5.25939 8.07631 5.26319 8.07247 5.26701 8.06867C5.43056 7.90603 5.62052 7.81863 5.85547 7.81546C5.92165 7.81481 5.99004 7.815 6.0619 7.81653C6.09828 7.81734 6.31524 7.8399 6.39072 7.84393C6.43321 7.84616 6.43457 7.88633 6.49236 7.88593C6.50494 7.88572 6.57467 7.83325 6.60017 7.83466C6.68752 7.83931 6.9473 7.91987 6.98357 7.91754C7.08415 7.91069 7.04555 7.84825 7.08897 7.83692C7.23482 7.79941 7.2509 7.89318 7.39539 7.86273C7.42123 7.85729 7.50691 7.77557 7.61401 7.78625C7.65753 7.7907 7.73165 7.83289 7.76496 7.83087C7.94651 7.81998 8.14916 7.7641 8.31541 7.77338C8.45169 7.78105 8.41504 7.84413 8.48711 7.8526C8.55918 7.86084 8.64621 7.78768 8.6955 7.78345C8.77437 7.77681 8.87025 7.81835 8.89472 7.81775C9.37681 7.80545 9.80553 7.75727 10.2706 7.73993C9.95477 7.71109 9.63929 7.68463 9.32549 7.65478C9.14734 7.72012 9.23602 7.65885 9.11875 7.63848C9.02595 7.62235 9.0035 7.73302 8.88149 7.72076C8.88159 7.72076 8.88169 7.72076 8.88179 7.72076C8.8189 7.71431 8.68256 7.63767 8.54861 7.66973C8.54385 7.67096 8.53192 7.72839 8.43163 7.73041C8.20624 7.73484 7.86086 7.76431 7.60724 7.75201C7.53278 7.74838 7.54795 7.68806 7.45989 7.6806C7.39566 7.6752 7.32125 7.73098 7.22068 7.7185C7.09454 7.70257 7.03403 7.60663 6.94733 7.73993C6.94019 7.69234 6.94381 7.64592 6.93531 7.59954ZM8.84697 9.59873C8.86469 9.604 9.10196 9.75278 9.0316 9.59391C8.7127 9.52494 8.36791 9.5592 8.03235 9.52048C8.14692 9.67757 8.34076 9.61565 8.57603 9.60416C8.57613 9.60416 8.57623 9.60416 8.57633 9.60416C8.58744 9.60362 8.54101 9.64468 8.60415 9.63724C8.63475 9.63361 8.75211 9.5707 8.84697 9.59873ZM10.9173 4.98598C10.8641 4.38545 10.8413 3.78571 10.8645 3.16797C10.8698 3.02722 10.9109 3.04048 10.9176 2.98261C10.9298 2.87626 10.8854 2.69778 10.8854 2.67275C10.8849 2.51747 10.9569 2.57815 10.9597 2.55725C10.9852 2.35376 10.9259 2.37913 10.9052 2.24045L11.3555 2.69074C11.3354 2.69374 11.3118 2.69593 11.2836 2.69692C10.9935 2.70721 10.6212 2.69254 10.2717 2.6885C10.1489 2.68689 10.2036 2.63207 9.93864 2.63668C9.75097 2.63991 9.17525 2.70239 8.91016 2.63564C8.9086 2.61044 8.94208 2.58261 8.95615 2.5566C8.57615 2.66165 8.44014 2.65704 7.90139 2.63143C7.81615 2.6274 7.73545 2.67056 7.5853 2.65463C7.43523 2.63868 7.42889 2.57215 7.12709 2.57296C7.02004 2.5734 6.95509 2.62032 6.79094 2.62234C6.32409 2.62818 5.43496 2.56991 5.05179 2.56789C4.2972 2.56386 3.88663 2.64394 3.2165 2.61611C3.16489 2.6141 3.27825 2.56268 3.18364 2.56167C3.08824 2.56066 2.98889 2.62878 2.96543 2.63039C2.77078 2.64387 2.40958 2.5931 2.1888 2.57388L2.52222 2.24045C2.51643 2.30699 2.5135 2.36077 2.51606 2.3934C2.54308 2.73592 2.5731 2.3984 2.58601 2.87306C2.59829 3.32504 2.50959 3.94907 2.49225 4.39711C2.4721 4.9163 2.60093 5.08373 2.46644 5.4747C2.4743 6.84782 2.47911 8.22641 2.48597 9.60109C2.45916 9.59718 2.43233 9.59264 2.40552 9.58795C2.42407 9.69664 2.44265 9.80536 2.461 9.91406C2.44104 9.89764 2.42107 9.88206 2.40131 9.86564C2.47832 10.3762 2.51805 10.8312 2.49689 11.4277C2.49649 11.4394 2.44303 11.4087 2.44165 11.4184C2.43157 11.5529 2.4727 11.7032 2.46302 11.8213C2.43983 12.1067 2.32326 12.5915 2.46582 12.3781C2.43639 13.0435 2.48459 13.8254 2.45697 14.4596C2.44508 14.734 2.36059 14.8162 2.35571 14.9475C2.35088 15.0788 2.42348 15.012 2.42627 15.0585C2.42656 15.0636 2.42685 15.0687 2.42712 15.0738L2.1888 14.8355C2.4699 14.8203 2.91508 14.8246 2.96274 14.9044C3.01902 14.872 3.07858 14.8391 3.13565 14.8065C3.1022 14.8966 3.96726 14.8593 4.19422 14.8615C4.23567 14.8619 4.24144 14.9014 4.27272 14.901C4.62133 14.896 4.70656 14.8341 5.00518 14.8135C5.10997 14.8062 4.94747 14.8758 5.21648 14.8458C5.23992 14.8431 5.22747 14.7806 5.54882 14.781C6.0618 14.7816 7.04313 14.7568 7.65385 14.7877C7.70389 14.7901 7.55154 14.8582 7.78043 14.8424C7.86332 14.8367 7.82361 14.7883 8.02458 14.7879C8.80344 14.7859 9.63391 14.8415 10.4284 14.7954C10.3994 14.85 10.1165 14.9113 10.5418 14.877C10.6098 14.8714 10.5591 14.8226 10.5896 14.8208C10.8366 14.8066 11.0508 14.8415 11.3182 14.8228C11.3322 14.8218 11.3444 14.8197 11.3555 14.817L11.0987 15.0738C11.0861 15.0226 11.0589 14.9949 11.0514 14.9139C11.0379 14.7685 11.0925 14.7041 11.0694 14.5352C11.0329 14.2711 10.9811 14.2303 11.0827 13.9027C11.0808 13.3758 11.0772 12.8496 11.074 12.3238C11.0655 12.025 11.1926 11.6846 11.4172 11.4688C11.6314 11.2426 11.9722 11.1127 12.2721 11.1195C12.5722 11.1121 12.9135 11.2416 13.128 11.4679C13.3531 11.6839 13.48 12.0251 13.4704 12.3238C13.4665 12.6837 13.4606 13.0435 13.4519 13.4035C13.4809 13.9384 13.5134 14.4319 13.5245 14.9895C13.5251 15.0218 13.5229 15.049 13.5192 15.0738C13.5013 15.1915 13.4655 15.2582 13.441 15.501C13.4505 15.5665 13.3446 16.0748 13.1733 16.0608C13.1189 16.182 13.0711 16.2514 13.0076 16.3453C13.0769 16.2906 13.1456 16.2281 13.2077 16.1653C13.0994 16.3275 12.9874 16.4659 12.8729 16.5912C12.6951 16.7848 12.4976 16.9587 12.2508 17.0857C11.9465 17.2262 12.1469 17.0854 11.9573 17.1534C11.7665 17.2098 11.6695 17.2417 11.4255 17.1809C11.4015 17.1923 11.3785 17.201 11.3555 17.2074C11.2199 17.2509 11.102 17.2065 10.8357 17.2045C10.8028 17.2043 10.6129 17.2365 10.4542 17.2301C10.3401 17.2255 10.3063 17.1737 10.125 17.1817C10.0953 17.1829 9.71201 17.2471 9.59001 17.2529C9.39999 17.2622 9.098 17.1958 9.06125 17.195C8.52723 17.1833 8.3214 17.2489 7.94216 17.141C7.86552 17.2051 7.54907 17.2426 7.29339 17.2364C6.97043 17.2285 6.32285 17.0974 6.23447 17.236C5.86073 17.1743 5.90131 17.2123 5.4581 17.2136C5.05463 17.2148 3.98645 17.1618 3.65946 17.1694C3.33259 17.1769 3.49186 17.2539 3.36205 17.2642C3.14958 17.2813 3.26435 17.2245 3.11894 17.2253C2.78958 17.2272 2.49476 17.2346 2.1888 17.2502C2.10032 17.254 2.00984 17.2537 1.91699 17.2479C1.89657 17.2053 1.87591 17.1621 1.85743 17.1189C1.83279 17.1286 1.80775 17.1379 1.7823 17.1466C1.68658 17.1287 1.57996 17.101 1.49452 17.0699C2.12216 17.3902 1.0364 17.0535 0.704123 16.5585C0.645754 16.4917 0.597232 16.4305 0.559933 16.3841C0.310024 16.1157 -0.00485733 15.5121 2.15769e-05 15.0801C-7.87973e-05 15.078 -0.000154138 15.0758 -0.000205994 15.0738C-0.00257137 14.9943 0.0387056 15.0515 0.0377342 15.0339C0.0254331 14.8228 -0.00401974 14.7907 1.33812e-05 14.5069C0.00223389 14.3568 0.056242 14.2035 0.057266 14.0573C0.0645254 12.9837 0.010259 11.9475 0.00440806 10.8809C0.00339988 10.6995 0.0693308 10.543 0.0707552 10.3905C0.0727713 10.1724 0.0187892 10.0347 0.0179583 9.82994C0.0171517 9.62585 0.0816649 9.3317 0.0717928 9.19328C0.0621133 9.05486 -0.000403345 9.29171 0.0167375 9.03835C0.0246147 8.92198 0.0711698 9.12751 0.0725863 8.98371C0.0770225 8.53487 0.0193661 7.90148 0.0752108 7.42369C0.0613007 7.4448 0.0487819 7.47362 0.0354758 7.49942C0.0409218 6.99036 0.0743996 6.54063 0.0792393 6.01514C0.0810384 5.83138 0.0401669 5.49997 0.0403588 5.31934C0.0405604 5.13874 0.0849079 5.05657 0.0861365 4.91196C0.0867414 4.85253 0.0469986 4.87576 0.0478053 4.83588C0.0583006 4.33708 0.129046 4.06339 0.120989 3.54111C0.114359 3.11024 0.107933 2.67635 0.101652 2.24045C0.0839739 1.70429 0.312909 1.13347 0.70022 0.751871C1.06992 0.357377 1.64036 0.108979 2.1888 0.11347C2.73865 0.106049 3.28813 0.0986496 3.83523 0.0911553C3.91337 0.0901017 3.96596 0.0383272 4.08008 0.0306677C4.25586 0.0188114 4.26447 0.0645784 4.28792 0.0661912C4.44113 0.0762633 4.37864 0.0339026 4.58429 0.0339026C5.03706 0.0339029 5.76745 0.0714319 6.21866 0.0682054C7.25869 0.060744 8.13294 0.0203947 9.15264 2.71797e-05C9.22615 -0.00158605 9.1763 0.0597081 9.30376 0.0605147C10.1589 0.0666496 10.3724 0.0137649 11.3555 0.0229295C11.4142 0.0233956 11.4755 0.0260597 11.5395 0.031738C11.9532 0.0584004 12.5125 0.268986 12.9064 0.689515C13.289 1.06264 13.5507 1.67274 13.5293 2.24045C13.5201 2.89509 13.5123 3.53499 13.509 4.05054C13.5088 4.05054 13.5087 4.05054 13.5086 4.05054C13.5854 4.33014 13.5972 4.66548 13.57 4.99045C13.5586 5.19497 13.4885 5.40919 13.372 5.56991C13.4536 5.37888 13.4772 5.174 13.4629 4.99045C13.378 4.06858 13.3421 3.15819 13.3295 2.24045C13.3315 1.73046 13.1155 1.20956 12.7465 0.849382C12.3975 0.484581 11.8778 0.254835 11.3555 0.259701C10.8185 0.255252 10.273 0.251856 9.71564 0.254124C7.27395 0.263922 4.69483 0.412855 2.1888 0.439571C1.76016 0.439815 1.34112 0.594569 1.02244 0.872207C0.98201 0.906691 0.946013 0.9368 0.912534 0.964185C0.779428 1.07548 0.677904 1.13641 0.588309 1.30132C0.570613 1.33579 0.663246 1.27578 0.608792 1.37967C0.474285 1.64376 0.410721 1.9409 0.413885 2.24045C0.42377 3.60612 0.353026 5.0139 0.378686 6.3295C0.387156 6.76427 0.442616 6.83245 0.456936 7.21481C0.430728 7.14759 0.403325 7.10364 0.376916 7.04501C0.295043 8.79041 0.331543 10.5383 0.319847 12.3064C0.319229 12.3861 0.264977 12.3963 0.26296 12.48C0.258735 12.6473 0.318424 12.8076 0.320457 12.9538C0.323079 13.1446 0.279913 13.1776 0.282736 13.3535C0.284181 13.4394 0.325664 13.4137 0.318626 13.6005C0.318021 13.6161 0.274498 13.6263 0.280112 13.7506C0.295638 14.0907 0.332147 14.7859 0.343041 15.0675C0.343122 15.0696 0.343201 15.0717 0.343278 15.0738C0.353202 15.43 0.395013 15.7265 0.451424 15.8578C0.616147 16.2011 0.680335 16.155 0.88504 16.3775C0.886815 16.3793 0.888604 16.3811 0.890405 16.3829C1.22985 16.7298 1.7077 16.9303 2.1888 16.9288C3.89763 16.949 5.57971 16.9956 7.35356 16.9952C7.49599 16.9951 8.02273 16.9204 8.28625 16.9234C8.37457 16.9246 8.83643 16.9443 8.90562 16.946C9.18636 16.9522 9.42896 16.9974 9.58379 17.0069C9.88405 17.0254 10.2196 16.9549 10.383 16.9478C10.6699 16.9353 11.1796 16.9446 11.3001 16.9464C11.3204 16.9467 11.3387 16.9474 11.3555 16.9485C11.5832 16.9557 11.5205 17.0346 11.7217 16.9857C11.7839 16.9655 11.7082 16.9217 11.9213 16.8618C12.0971 16.8046 12.1863 16.814 12.3061 16.7577C12.4293 16.7012 12.567 16.4915 12.6215 16.4387C12.6396 16.4226 12.6567 16.4071 12.6734 16.3917C12.9296 16.1398 13.0926 15.9989 13.2208 15.5778C13.2464 15.484 13.2831 15.2988 13.2789 15.0738C13.2688 14.4365 13.2454 13.4641 13.2317 13.3589C13.1497 12.7286 13.1865 13.7783 13.1837 13.8375C13.1678 14.1573 13.1363 14.1105 13.1964 14.4296C13.1169 14.552 13.1246 14.8048 13.142 15.0738C13.1767 15.4229 13.0663 15.8223 12.8845 15.8787C12.8915 16.0913 12.7695 16.2316 12.6235 16.3418C12.5698 16.3826 12.5119 16.4206 12.4515 16.4595C12.1292 16.643 12.4115 16.5558 12.1736 16.6958C12.0762 16.7538 11.7612 16.7915 11.6066 16.8132C11.5078 16.8317 11.4451 16.8574 11.3555 16.8744C11.3027 16.884 11.2416 16.8915 11.1601 16.8926C10.7637 16.8978 10.4446 16.874 10.1115 16.8129C10.0505 16.8399 9.99361 16.867 9.93342 16.894C9.70351 16.8649 9.47271 16.8361 9.2428 16.8072C9.27956 16.8308 9.31637 16.8546 9.35312 16.8782C9.28587 16.8817 9.21841 16.8849 9.15116 16.8881C8.92753 16.8526 8.71395 16.8198 8.48406 16.7831C7.8594 16.9195 8.04069 16.8014 7.69351 16.7837C7.34641 16.766 7.14551 16.845 6.87736 16.8454C6.5161 16.846 6.35019 16.8559 5.98582 16.8502C5.77469 16.847 5.41654 16.7707 5.71055 16.8915C5.05133 16.9012 4.14879 16.9349 3.55917 16.8859C3.38508 16.8716 3.61721 16.8336 3.58753 16.8288C3.43977 16.8065 3.31529 16.8681 3.16286 16.8593C2.90953 16.8446 2.41614 16.7966 2.21668 16.7853C2.20755 16.7847 2.19825 16.7843 2.1888 16.784C1.92019 16.7886 1.51666 16.7318 1.47405 16.7099C1.23095 16.6319 1.21634 16.5248 1.15036 16.4844C1.06284 16.4258 0.994686 16.3712 0.940023 16.3226C0.763039 16.1608 0.722275 16.074 0.756946 15.9305C0.633275 15.8873 0.368648 15.4332 0.475046 15.2961C0.430934 15.3005 0.398115 15.2053 0.387569 15.0738C0.376224 14.9325 0.37459 14.7548 0.362756 14.6203C0.389374 14.5718 0.415833 14.5225 0.442653 14.474C0.278107 13.929 0.397633 12.8436 0.417201 12.1266C0.417604 12.1086 0.348693 12.0764 0.364221 11.9685C0.365494 11.9617 0.396461 11.9728 0.400476 11.9004C0.413389 11.6619 0.490744 10.7518 0.491421 10.6471C0.494043 10.2616 0.44261 10.1942 0.43777 9.95962C0.431318 9.65079 0.477734 9.60615 0.471096 9.31224C0.468072 9.17464 0.406979 9.04944 0.415614 8.83293C0.420653 8.70474 0.468631 8.69204 0.4725 8.5905C0.486414 8.22923 0.456136 7.96389 0.518644 7.64329C0.366024 7.55961 0.478516 7.40639 0.490018 7.24766C0.537002 6.60333 0.472509 5.80028 0.486416 5.24741C0.513007 4.19919 0.558195 3.22311 0.594312 2.24045C0.60859 1.81586 0.783011 1.43609 1.09327 1.14492C1.19571 1.0472 1.30692 0.962591 1.42695 0.894868C1.62637 0.791354 1.65369 0.6973 1.90336 0.651763C1.98676 0.639769 2.07575 0.661547 2.1888 0.677533C2.23432 0.683211 2.28379 0.687094 2.3385 0.687303C2.50815 0.688098 2.75122 0.659892 2.96306 0.66008C3.01937 0.66008 3.02438 0.712108 3.10727 0.712511C3.73593 0.715528 4.34984 0.678589 4.98475 0.653183C5.22007 0.643729 5.36562 0.712664 5.32574 0.592695C5.41566 0.622134 5.50308 0.647768 5.58753 0.676804C5.91127 0.601183 6.17567 0.679989 6.61359 0.660629C6.6608 0.658323 6.99144 0.57538 7.17901 0.635238C7.1923 0.592498 7.16318 0.556206 7.16864 0.517498C7.35394 0.501166 7.63865 0.55053 7.7638 0.555585C7.88876 0.56062 7.97243 0.505101 8.01003 0.504558C8.15314 0.503147 8.11978 0.576165 8.13072 0.577375C8.79766 0.647337 8.72745 0.608437 9.13016 0.498943C9.23105 0.471323 9.91571 0.55154 10.0542 0.465067C10.0604 0.500341 10.0223 0.531384 10.0113 0.565046C10.217 0.57412 10.4242 0.583438 10.6307 0.592512C10.5869 0.558634 10.5343 0.524722 10.4944 0.490642C10.8125 0.512861 11.0902 0.472832 11.3555 0.452982C11.4399 0.446533 11.5236 0.447354 11.6059 0.458652C11.7976 0.489801 11.7558 0.562444 11.8651 0.574839C11.8867 0.578164 11.866 0.518311 11.9297 0.534605C12.2666 0.62981 12.4443 0.789733 12.6167 0.979266C12.7095 1.08504 12.8013 1.20544 12.8924 1.36725C13.0062 1.57714 13.1823 1.77204 13.1445 2.1443C13.1433 2.15377 13.1374 2.18962 13.1298 2.24045C13.1107 2.37129 13.0929 2.60183 13.1764 2.76165C13.1395 2.83281 13.1202 2.89557 13.0891 2.94875C13.2627 3.40152 13.0926 3.2764 13.0522 3.8887C13.0393 4.085 13.046 4.56877 13.0574 4.99045C13.0686 5.22205 12.9768 5.40996 12.907 5.50218C12.8863 5.53102 12.8698 5.55481 12.8572 5.57547C12.8039 5.65909 12.8246 5.6945 12.8038 5.71394C12.6322 5.84426 12.6012 5.7803 12.4237 5.8299C12.377 5.84001 12.3263 5.85092 12.2721 5.85949C12.1149 5.88745 11.9181 5.8806 11.7843 5.79072C11.6641 5.70285 11.7802 5.70593 11.6548 5.6078C11.6444 5.5988 11.6326 5.58877 11.6191 5.5772C11.5856 5.5434 11.6127 5.70319 11.4875 5.484C11.4459 5.44997 11.4098 5.0611 11.4487 4.99045C11.4698 5.12364 11.5683 5.3876 11.7488 5.51376C11.8318 5.57972 11.9128 5.61525 11.9659 5.63297C12.0593 5.66471 12.1616 5.67519 12.2721 5.66555C12.4564 5.64994 12.6061 5.57858 12.7228 5.4411C12.8322 5.31286 12.8769 5.17074 12.8656 4.99045C12.8264 4.14722 12.7951 3.21734 12.7705 2.24045C12.7603 1.85995 12.6149 1.53075 12.3324 1.26348C12.0588 1.00033 11.7332 0.871212 11.3555 0.878912C8.2372 0.919008 5.03425 0.910272 2.84583 0.890128C2.57731 0.887752 2.37301 0.852738 2.1888 0.829263C2.12276 0.818783 2.05981 0.814351 1.99838 0.81979C1.80242 0.844709 1.97544 0.878493 1.80814 0.912045C1.64591 0.952778 1.51249 0.967165 1.37121 1.06166C1.30204 1.10897 1.23565 1.16328 1.1722 1.22385C0.885317 1.49443 0.728237 1.84066 0.722101 2.24045C0.706744 3.10579 0.69339 3.97019 0.685824 4.82654C0.682597 5.19955 0.736057 5.49766 0.736057 5.83704C0.736025 5.96911 0.667091 5.9732 0.667696 6.06702C0.673147 7.07807 0.739484 8.01339 0.731418 9.01898C0.727981 9.43652 0.669908 9.88767 0.664461 10.3013C0.659824 10.6422 0.69953 10.9956 0.700351 11.3021C0.700955 11.4685 0.648453 11.5563 0.644319 11.6165C0.630606 11.826 0.694735 11.7528 0.694735 11.8599C0.694519 12.1555 0.617093 12.3025 0.623139 12.5792C0.625558 12.6879 0.674898 12.6739 0.682589 12.8317C0.692266 13.0318 0.646749 12.9578 0.645112 13.1008C0.644911 13.1094 0.68019 13.0813 0.681612 13.1571C0.690889 13.6451 0.718701 14.2543 0.716281 14.7251C0.715702 14.8415 0.71422 14.9578 0.712037 15.0738C0.699684 15.4789 0.833449 15.8508 1.11105 16.1515C1.31672 16.3791 1.57231 16.5376 1.8567 16.5999C2.04809 16.6368 2.00305 16.5783 2.06338 16.5829C2.10897 16.5846 2.15023 16.5858 2.1888 16.5868C2.43497 16.5923 2.57237 16.6289 2.88205 16.6122C2.94307 16.609 3.18869 16.5453 3.42326 16.5614C3.54991 16.5701 3.69371 16.6098 3.80159 16.6191C3.90947 16.6284 3.92678 16.5699 4.05647 16.5699C4.29262 16.5697 4.22394 16.6102 4.56172 16.6029C4.69777 16.6001 5.15205 16.5447 5.50236 16.5489C6.07478 16.5558 6.78418 16.6064 7.45904 16.6072C7.69051 16.6076 7.98784 16.5475 8.34677 16.5469C8.78546 16.5461 9.59377 16.5598 10.0434 16.5606C10.2733 16.561 10.2899 16.6239 10.3173 16.6266C10.4931 16.6441 10.4221 16.5737 10.54 16.5765C10.7019 16.5804 10.8529 16.6322 10.9999 16.6357C11.0937 16.6379 11.1086 16.586 11.1289 16.5856C11.2053 16.5839 11.2807 16.5824 11.3555 16.581C11.7752 16.5732 12.1243 16.4216 12.4121 16.1304C12.5088 16.0328 12.5932 15.9256 12.6605 15.8071C12.7862 15.587 12.8449 15.3378 12.8417 15.0738C12.8338 14.1584 12.8245 13.2414 12.8154 12.3238C12.8118 12.1585 12.7634 12.045 12.6562 11.9397C12.5473 11.8358 12.4343 11.7935 12.2721 11.7944C12.1097 11.798 12.0008 11.8445 11.8974 11.949C11.7957 12.0556 11.7546 12.1641 11.755 12.3238C11.7618 13.2412 11.7668 14.1582 11.7684 15.0738L11.7638 15.4912L11.3555 15.4867C10.4478 15.4882 9.54161 15.4864 8.63772 15.4796C8.30226 15.4772 8.28963 15.4118 7.99484 15.4221C7.70003 15.4322 7.41523 15.5733 7.17281 15.4174C7.16499 15.4489 7.16576 15.4713 7.15794 15.5C6.5488 15.4556 5.93959 15.5015 5.34374 15.5072C4.90276 15.5114 4.51168 15.5064 4.10431 15.503C3.74321 15.4997 3.77439 15.4449 3.46176 15.5164C3.03837 15.5043 2.61373 15.4962 2.1888 15.4894L1.76865 15.4848L1.77319 15.0738C1.7913 13.9393 1.80028 12.8027 1.85442 11.6819C1.73726 11.3206 1.81107 10.9743 1.82842 10.4746C1.83061 10.4129 1.78786 10.4791 1.79149 10.2962C1.79595 10.0664 1.86127 9.94752 1.85765 9.56063C1.85665 9.45818 1.78423 8.69945 1.82134 8.41871C1.85844 8.13798 1.88021 7.73134 1.9157 7.43968C1.88767 7.48112 1.86086 7.53361 1.83324 7.57974C1.8284 7.43429 1.82373 7.28807 1.81889 7.14262C1.85257 7.1215 1.88628 7.10036 1.92016 7.08002C1.88809 6.99557 1.85643 6.91108 1.82396 6.82584C1.99696 6.6421 1.94054 6.83048 1.89678 6.42157C1.875 6.21669 1.90523 6.05405 1.88768 5.8437C1.88124 5.7679 1.83029 5.71942 1.82378 5.63586C1.80805 5.43102 1.87817 5.55041 1.8778 5.42387C1.87719 5.2964 1.80018 5.11341 1.83446 4.88507C1.97176 5.12346 1.92697 4.43445 1.8203 4.40161C1.8201 4.31959 1.82454 4.25083 1.82152 4.16022C2.09093 4.2439 1.89974 3.81438 1.86284 3.64391C1.82599 3.47354 1.89838 3.48043 1.89556 3.44056C1.88769 3.32569 1.85763 3.40935 1.85662 3.32886C1.8524 2.95716 1.87259 2.6006 1.88658 2.24045L1.88995 1.93493L2.1888 1.93823C2.34539 1.94431 2.50266 1.94922 2.66214 1.95044C2.73784 1.95102 2.67071 1.91011 2.75897 1.91413C2.84734 1.91816 2.93201 1.95888 3.06261 1.95606C3.09765 1.95534 3.10865 1.91941 3.16324 1.91938C4.30729 1.92099 5.39355 1.9516 6.56028 1.95624C6.66584 1.95665 6.74872 1.89275 6.95279 1.89496C7.15685 1.89718 7.46649 1.95484 7.71983 1.95929C7.78708 1.9605 7.80532 1.90728 7.89447 1.90869C8.19783 1.91354 8.45915 1.95688 8.77425 1.96393C9.30671 1.97582 9.8642 1.94335 10.4045 1.9748C10.5069 1.98064 10.4905 2.02503 10.6382 2.03754C10.8932 2.05912 10.7972 1.99439 10.8489 1.98572C11.0177 1.95771 11.0708 2.04374 11.2341 2.02161C11.2591 2.01819 11.2235 1.96717 11.2459 1.96637C11.2866 1.96533 11.3227 1.96606 11.3555 1.96804L11.6308 1.97108L11.6279 2.24045C11.6129 2.48714 11.5264 2.53953 11.583 2.86538C11.5142 3.19361 11.4908 2.64536 11.4543 2.58906C11.3656 2.45156 11.2613 2.81505 11.2279 3.0293C11.199 3.21381 11.2543 3.21245 11.2543 3.2859C11.2545 3.67452 11.265 4.25324 11.2388 4.54885C11.2231 4.72793 11.2001 4.40514 11.1819 4.49663C11.1638 4.58732 11.2053 4.64602 11.1599 4.73906C11.1146 4.83211 10.981 5.02195 10.9173 4.98598ZM10.0912 14.9329C9.49535 15.1507 7.91511 15.1279 7.06664 15.1071C6.36286 15.0898 5.75612 14.922 5.90156 15.1652C6.66236 15.1668 7.27774 15.1424 8.08233 15.1499C8.166 15.1507 8.66505 15.1732 8.83865 15.1773C8.93637 15.1795 8.9395 15.2197 9.07243 15.2193C9.10137 15.2191 9.26174 15.1666 9.32038 15.168C9.5213 15.1726 10.1188 15.2532 10.2022 15.2509C10.4336 15.244 10.3448 15.1816 10.4447 15.1702C10.7801 15.1327 10.8171 15.2265 11.1495 15.1961C11.1819 15.1931 11.2554 15.1674 11.3555 15.1464L11.4273 15.1472L11.4281 15.0738C11.4106 14.9905 11.3964 14.8888 11.4013 14.777C11.4057 14.6769 11.4479 14.5064 11.4459 14.4298C11.435 14.0122 11.3791 13.5461 11.3884 13.1637C11.3961 12.8502 11.4591 12.9345 11.4676 12.7688C11.4751 12.6187 11.4158 12.4403 11.4014 12.3238C11.3999 12.312 11.399 12.3011 11.399 12.2907C11.3917 12.11 11.5159 11.9308 11.5437 11.8918C11.5788 11.8305 11.6221 11.7741 11.6715 11.7231C11.8285 11.5568 12.0464 11.4697 12.2721 11.4659C12.5034 11.4567 12.7314 11.5365 12.8985 11.6974C13.0706 11.8543 13.1688 12.0844 13.1724 12.3238C13.1792 12.5747 13.1851 12.8276 13.1893 13.0853C13.1994 12.8313 13.2092 12.5775 13.219 12.3238C13.2322 12.0766 13.1441 11.8147 12.9663 11.6296C12.8033 11.4483 12.5572 11.3356 12.3104 11.322C12.2969 11.3236 12.2843 11.3253 12.2721 11.327C11.8934 11.4182 12.0808 11.3273 11.8008 11.4126C11.6728 11.4694 11.6316 11.5495 11.583 11.6347C11.5483 11.6984 11.5076 11.7668 11.4448 11.8697C11.4449 11.8695 11.445 11.8693 11.4452 11.8691C11.3939 11.9505 11.294 12.1131 11.2823 12.3238C11.2755 12.4213 11.2741 12.5246 11.2847 12.6273C11.286 12.6383 11.3434 12.6657 11.3454 12.8964C11.3499 13.4148 11.3793 14.2092 11.367 14.7925C11.3638 14.9454 11.3154 14.934 11.2997 15.0738L11.3555 15.018C11.3386 15.0161 11.3196 15.0147 11.2978 15.0139C11.1501 15.0085 10.9789 15.0643 10.7476 15.0518C10.4575 15.0359 10.3183 14.94 10.1189 15.0733C10.1025 15.0257 10.1108 14.9793 10.0912 14.9329ZM2.21374 6.95172C2.21901 6.91097 2.3678 6.36522 2.20892 6.52705C2.13995 7.26056 2.17421 8.05358 2.13549 8.8254C2.29258 8.56187 2.23067 8.11604 2.21917 7.5749C2.21917 7.57467 2.21917 7.57444 2.21917 7.57421C2.21864 7.54865 2.2597 7.65546 2.25226 7.51023C2.24863 7.43985 2.18571 7.1699 2.21374 6.95172Z" fill="#F3832D"/>
</svg>
