<svg width="27" height="22" viewBox="0 0 27 22" fill="none" xmlns="http://www.w3.org/2000/svg">
<path d="M11.4721 16.0763L17.9957 10.9796C18.1708 10.8377 18.2476 10.6527 18.2264 10.4245C18.2051 10.1964 18.0953 10.0287 17.897 9.9217L10.5433 6.11949C10.3223 5.99363 10.1088 6.00309 9.90257 6.14787C9.69637 6.29265 9.60488 6.48949 9.6281 6.73841L10.4582 15.6373C10.4814 15.8862 10.6077 16.0627 10.8371 16.1669C11.0665 16.271 11.2782 16.2408 11.4721 16.0763ZM4.12661 21.7831C3.44208 21.847 2.83334 21.6579 2.30041 21.2159C1.76747 20.7739 1.46907 20.2107 1.40522 19.5261L0.0120951 4.59097C-0.0517565 3.90644 0.137316 3.29771 0.579313 2.76477C1.02131 2.23183 1.58457 1.93344 2.2691 1.86959L22.1827 0.0120848C22.8672 -0.0517668 23.4759 0.137306 24.0089 0.579303C24.5418 1.0213 24.8402 1.58456 24.904 2.26909L26.2972 17.2043C26.361 17.8888 26.1719 18.4975 25.7299 19.0305C25.288 19.5634 24.7247 19.8618 24.0402 19.9256L4.12661 21.7831ZM3.89442 19.2939L23.808 17.4364L22.4148 2.50128L2.50129 4.35878L3.89442 19.2939Z" fill="#303131"/>
</svg>
